<svg xmlns="http://www.w3.org/2000/svg" xmlns:xlink="http://www.w3.org/1999/xlink" width="203.904" height="74.855" viewBox="0 0 203.904 74.855"><defs><style>.a{fill:none;}.b{fill:#2c2c2c;font-size:20px;font-family:ObjektivMk2-Bold, Objektiv Mk2;font-weight:700;letter-spacing:0.025em;}.c,.d{stroke:none;}.d{fill:#2c2c2c;}.e{filter:url(#a);}</style><filter id="a" x="0" y="0" width="203.904" height="74.855" filterUnits="userSpaceOnUse"><feOffset dx="3" dy="3" input="SourceAlpha"/><feGaussianBlur stdDeviation="2" result="b"/><feFlood flood-opacity="0.149"/><feComposite operator="in" in2="b"/><feComposite in="SourceGraphic"/></filter></defs><g transform="translate(3 3)"><g class="e" transform="matrix(1, 0, 0, 1, -3, -3)"><g class="a" transform="translate(3 3)"><path class="c" d="M2.468,0H189.436A2.684,2.684,0,0,1,191.9,2.857V60a2.684,2.684,0,0,1-2.468,2.857H2.468A2.684,2.684,0,0,1,0,60V2.857A2.684,2.684,0,0,1,2.468,0Z"/><path class="d" d="M 2.468215942382812 1.000007629394531 C 1.658645629882812 1.000007629394531 1 1.833084106445312 1 2.857059478759766 L 1 59.99840927124023 C 1 61.02238464355469 1.658645629882812 61.85546112060547 2.468215942382812 61.85546112060547 L 189.4360809326172 61.85546112060547 C 190.2456512451172 61.85546112060547 190.904296875 61.02238464355469 190.904296875 59.99840927124023 L 190.904296875 2.857059478759766 C 190.904296875 1.833084106445312 190.2456512451172 1.000007629394531 189.4360809326172 1.000007629394531 L 2.468215942382812 1.000007629394531 M 2.468215942382812 7.62939453125e-06 L 189.4360809326172 7.62939453125e-06 C 190.7992553710938 7.62939453125e-06 191.904296875 1.279159545898438 191.904296875 2.857059478759766 L 191.904296875 59.99840927124023 C 191.904296875 61.57630920410156 190.7992553710938 62.85546112060547 189.4360809326172 62.85546112060547 L 2.468215942382812 62.85546112060547 C 1.10504150390625 62.85546112060547 0 61.57630920410156 0 59.99840927124023 L 0 2.857059478759766 C 0 1.279159545898438 1.10504150390625 7.62939453125e-06 2.468215942382812 7.62939453125e-06 Z"/></g></g><text class="b" transform="translate(68.522 39.427)"><tspan x="0" y="0">App Store</tspan></text></g></svg>