<svg xmlns="http://www.w3.org/2000/svg" xmlns:xlink="http://www.w3.org/1999/xlink" width="323" height="74.856" viewBox="0 0 323 74.856"><defs><style>.a{fill:none;}.b,.c{stroke:none;}.c{fill:#fff;}.d{filter:url(#a);}</style><filter id="a" x="0" y="0" width="323" height="74.856" filterUnits="userSpaceOnUse"><feOffset dx="3" dy="3" input="SourceAlpha"/><feGaussianBlur stdDeviation="2" result="b"/><feFlood flood-opacity="0.149"/><feComposite operator="in" in2="b"/><feComposite in="SourceGraphic"/></filter></defs><g class="d" transform="matrix(1, 0, 0, 1, 0, 0)"><g class="a" transform="translate(3 3)"><path class="b" d="M4,0H307c2.209,0,4,1.279,4,2.857V60c0,1.578-1.791,2.857-4,2.857H4c-2.209,0-4-1.279-4-2.857V2.857C0,1.279,1.791,0,4,0Z"/><path class="c" d="M 4 1.000015258789062 C 3.15069580078125 1.000015258789062 2.33160400390625 1.237133026123047 1.7528076171875 1.650554656982422 C 1.471649169921875 1.851402282714844 1 2.275169372558594 1 2.857093811035156 L 1 59.99886322021484 C 1 60.58078765869141 1.471649169921875 61.00455474853516 1.7528076171875 61.20540237426758 C 2.33160400390625 61.61882400512695 3.15069580078125 61.85594177246094 4 61.85594177246094 L 307 61.85594177246094 C 307.8493041992188 61.85594177246094 308.6683349609375 61.61882400512695 309.2471923828125 61.20536422729492 C 309.5283508300781 61.00455474853516 310 60.58078765869141 310 59.99886322021484 L 310 2.857093811035156 C 310 2.275169372558594 309.5283508300781 1.851402282714844 309.2471923828125 1.650592803955078 C 308.6683349609375 1.237133026123047 307.8493041992188 1.000015258789062 307 1.000015258789062 L 4 1.000015258789062 M 4 1.52587890625e-05 L 307 1.52587890625e-05 C 309.2091064453125 1.52587890625e-05 311 1.279170989990234 311 2.857093811035156 L 311 59.99886322021484 C 311 61.57678604125977 309.2091064453125 62.85594177246094 307 62.85594177246094 L 4 62.85594177246094 C 1.79083251953125 62.85594177246094 0 61.57678604125977 0 59.99886322021484 L 0 2.857093811035156 C 0 1.279170989990234 1.79083251953125 1.52587890625e-05 4 1.52587890625e-05 Z"/></g></g></svg>