<svg xmlns="http://www.w3.org/2000/svg" xmlns:xlink="http://www.w3.org/1999/xlink" width="259.054" height="74.856" viewBox="0 0 259.054 74.856"><defs><style>.a{fill:none;}.b{fill:#2c2c2c;font-size:20px;font-family:ObjektivMk2-Bold, Objektiv Mk2;font-weight:700;letter-spacing:0.025em;}.c,.d{stroke:none;}.d{fill:#2c2c2c;}.e{filter:url(#a);}</style><filter id="a" x="0" y="0" width="259.054" height="74.856" filterUnits="userSpaceOnUse"><feOffset dx="3" dy="3" input="SourceAlpha"/><feGaussianBlur stdDeviation="2" result="b"/><feFlood flood-opacity="0.149"/><feComposite operator="in" in2="b"/><feComposite in="SourceGraphic"/></filter></defs><g transform="translate(-9.67 -282)"><g class="e" transform="matrix(1, 0, 0, 1, 9.67, 282)"><g class="a" transform="translate(3 3)"><path class="c" d="M3.178,0h240.7a3.03,3.03,0,0,1,3.178,2.857V60a3.03,3.03,0,0,1-3.178,2.857H3.178A3.03,3.03,0,0,1,0,60V2.857A3.03,3.03,0,0,1,3.178,0Z"/><path class="d" d="M 3.177520751953125 1.000011444091797 C 1.976837158203125 1.000011444091797 0.9999847412109375 1.833103179931641 0.9999847412109375 2.857105255126953 L 0.9999847412109375 59.99888610839844 C 0.9999847412109375 61.02288436889648 1.976837158203125 61.8559455871582 3.177520751953125 61.8559455871582 L 243.8761749267578 61.8559455871582 C 245.0768585205078 61.8559455871582 246.0537109375 61.02288436889648 246.0537109375 59.99888610839844 L 246.0537109375 2.857105255126953 C 246.0537109375 1.833103179931641 245.0768585205078 1.000011444091797 243.8761749267578 1.000011444091797 L 3.177520751953125 1.000011444091797 M 3.177520751953125 1.1444091796875e-05 L 243.8761749267578 1.1444091796875e-05 C 245.6311187744141 1.1444091796875e-05 247.0537109375 1.279167175292969 247.0537109375 2.857105255126953 L 247.0537109375 59.99888610839844 C 247.0537109375 61.57678985595703 245.6311187744141 62.8559455871582 243.8761749267578 62.8559455871582 L 3.177520751953125 62.8559455871582 C 1.422637939453125 62.8559455871582 -1.52587890625e-05 61.57678985595703 -1.52587890625e-05 59.99888610839844 L -1.52587890625e-05 2.857105255126953 C -1.52587890625e-05 1.279167175292969 1.422637939453125 1.1444091796875e-05 3.177520751953125 1.1444091796875e-05 Z"/></g></g><text class="b" transform="translate(66.355 324.712)"><tspan x="0" y="0">Google Playstore</tspan></text></g></svg>